<?xml version="1.0" encoding="UTF-8" standalone="no"?>
<!-- Created with Inkscape (http://www.inkscape.org/) -->

<svg
   width="1080"
   height="1080"
   viewBox="0 0 285.74999 285.75"
   version="1.1"
   id="svg1"
   xml:space="preserve"
   inkscape:version="1.4 (86a8ad7, 2024-10-11)"
   sodipodi:docname="xochicera-oficial-web.svg"
   inkscape:export-filename="xochicera-logo.png"
   inkscape:export-xdpi="96"
   inkscape:export-ydpi="96"
   xmlns:inkscape="http://www.inkscape.org/namespaces/inkscape"
   xmlns:sodipodi="http://sodipodi.sourceforge.net/DTD/sodipodi-0.dtd"
   xmlns:xlink="http://www.w3.org/1999/xlink"
   xmlns="http://www.w3.org/2000/svg"
   xmlns:svg="http://www.w3.org/2000/svg"><sodipodi:namedview
     id="namedview1"
     pagecolor="#ffffff"
     bordercolor="#000000"
     borderopacity="0.25"
     inkscape:showpageshadow="2"
     inkscape:pageopacity="0.0"
     inkscape:pagecheckerboard="0"
     inkscape:deskcolor="#d1d1d1"
     inkscape:document-units="px"
     inkscape:zoom="0.5"
     inkscape:cx="471"
     inkscape:cy="539"
     inkscape:window-width="1366"
     inkscape:window-height="697"
     inkscape:window-x="-8"
     inkscape:window-y="-8"
     inkscape:window-maximized="1"
     inkscape:current-layer="layer1"
     showguides="false" /><defs
     id="defs1"><linearGradient
       id="swatch15"
       inkscape:swatch="solid"><stop
         style="stop-color:#f6f6f6;stop-opacity:0.44224423;"
         offset="0"
         id="stop15" /></linearGradient><linearGradient
       id="linearGradient5"
       inkscape:collect="always"><stop
         style="stop-color:#f8c037;stop-opacity:1;"
         offset="0"
         id="stop5" /><stop
         style="stop-color:#b9640f;stop-opacity:1;"
         offset="1"
         id="stop6" /></linearGradient><inkscape:path-effect
       effect="fillet_chamfer"
       id="path-effect2"
       is_visible="true"
       lpeversion="1"
       nodesatellites_param="F,0,0,1,0,7.723015,0,1 @ F,0,0,1,0,0,0,1 @ F,0,0,1,0,0,0,1 @ F,0,0,1,0,0,0,1 @ F,0,0,1,0,0,0,1 @ F,0,0,1,0,0,0,1 @ F,0,0,1,0,0,0,1 @ F,0,0,1,0,0,0,1"
       radius="0"
       unit="px"
       method="auto"
       mode="F"
       chamfer_steps="1"
       flexible="false"
       use_knot_distance="true"
       apply_no_radius="true"
       apply_with_radius="true"
       only_selected="false"
       hide_knots="false" /><inkscape:path-effect
       effect="fillet_chamfer"
       id="path-effect4"
       is_visible="true"
       lpeversion="1"
       nodesatellites_param="F,0,0,1,0,0,0,1 @ F,0,0,1,0,11.463905,0,1 @ F,0,0,1,0,0,0,1 @ F,0,0,1,0,4.9460624,0,1"
       radius="0"
       unit="px"
       method="auto"
       mode="F"
       chamfer_steps="1"
       flexible="false"
       use_knot_distance="true"
       apply_no_radius="true"
       apply_with_radius="true"
       only_selected="false"
       hide_knots="false" /><rect
       x="208.12385"
       y="311.4681"
       width="498.29216"
       height="97.307182"
       id="rect1" /><inkscape:path-effect
       effect="fillet_chamfer"
       id="path-effect1"
       is_visible="true"
       lpeversion="1"
       nodesatellites_param="F,0,0,1,0,1.1009946,0,1 @ F,0,0,1,0,1.1144213,0,1 @ F,0,0,1,0,0,0,1 @ F,0,0,1,0,0,0,1"
       radius="0"
       unit="px"
       method="auto"
       mode="F"
       chamfer_steps="1"
       flexible="false"
       use_knot_distance="true"
       apply_no_radius="true"
       apply_with_radius="true"
       only_selected="false"
       hide_knots="false" /><clipPath
       clipPathUnits="userSpaceOnUse"
       id="clipPath4"><rect
         style="fill:#000000;fill-opacity:0.923913;stroke-width:3.27231;stroke-linecap:round;stroke-linejoin:bevel;stroke-opacity:0.999999"
         id="rect4"
         width="55.75444"
         height="84.198677"
         x="226.94565"
         y="370.11545" /></clipPath><linearGradient
       inkscape:collect="always"
       xlink:href="#linearGradient5"
       id="linearGradient2"
       x1="143.31337"
       y1="51.075428"
       x2="142.875"
       y2="234.89209"
       gradientUnits="userSpaceOnUse"
       gradientTransform="matrix(1.5559158,0,0,1.5559158,-79.426458,-79.434074)" /></defs><g
     inkscape:label="Capa 1"
     inkscape:groupmode="layer"
     id="layer1"><rect
       style="display:none;opacity:1;fill:#262626;fill-opacity:1;stroke:#000000;stroke-width:0;stroke-dasharray:none"
       id="rect2"
       width="285.75"
       height="285.75"
       x="0"
       y="0"
       inkscape:label="bacground" /><text
       xml:space="preserve"
       transform="matrix(0.26458333,0,0,0.26458333,21.937076,167.15846)"
       id="text1"
       style="font-style:normal;font-variant:normal;font-weight:bold;font-stretch:normal;font-size:74.6667px;font-family:Georgia;-inkscape-font-specification:'Georgia Bold';text-align:center;writing-mode:lr-tb;direction:ltr;white-space:pre;shape-inside:url(#rect1);display:none;opacity:0.95;fill:#fbead0;fill-opacity:1;stroke:#000000;stroke-width:0;stroke-dasharray:none"
       inkscape:label="xochicera"><tspan
         x="255.23558"
         y="378.83456"
         id="tspan1">XochiCera</tspan></text><path
       d="M 13.113115,0.03499795 C 9.2276868,0.26972008 5.3529917,0.67154065 1.4987335,1.2394528 0.9989004,1.2883964 0.49931445,1.3401402 0,1.3946392 V 16.459165 C 0.28240193,69.803776 30.259293,118.54812 77.73876,142.86739 30.259293,167.18666 0.28240193,215.93098 0,269.27562 v 16.46677 H 1.6217523 74.186516 114.51001 v -98.62538 c 1.35368,1.40772 7.75982,0.92705 7.75982,0.92705 0,0 2.5086,1.25074 2.70158,4.13681 0.19307,2.88598 2.92671,9.22717 2.92671,9.22717 0,0 1.5122,2.70136 5.46828,-2.10899 2.18421,-5.06781 1.83402,-6.24419 1.83402,-6.24419 0,0 1.14194,-1.25805 2.63082,1.14576 0.61405,1.22446 2.81978,6.25301 2.86802,7.5998 0.0483,1.34686 0.67541,9.09131 0.67541,9.09131 0,0 2.55106,8.73536 5.97642,-1.79864 3.4254,-10.53399 2.87205,-12.50045 2.87205,-12.50045 0,0 1.74797,-1.56712 2.942,-0.10459 3.08611,7.91993 3.63023,-0.24442 3.63023,-0.24442 l 1.47059,-7.1785 c 0,0 4.91269,-1.36098 5.86791,1.42798 0.95519,2.78903 -0.71641,8.70779 -0.71641,8.70779 0,0 -0.64787,3.26406 -0.57971,3.87627 0.0681,0.6122 0.20422,12.72154 0.20422,12.72154 0,0 1.02118,2.97453 2.97014,1.65635 l 4.05719,-19.07027 c 0,0 -0.20976,-3.73203 1.16988,-5.66769 v 93.02522 h 37.4603 75.42876 1.62175 v -16.46677 c -0.001,-53.32566 -29.70003,-102.21234 -77.02398,-126.79016 47.08118,-24.45073 76.7382,-72.975434 77.02398,-126.026299 V 1.0054222 C 285.44028,0.9724644 285.13045,0.9406146 284.82052,0.9097266 279.93758,0.35715495 275.03077,0.06705233 270.11942,0.04055706 215.35163,0.30501788 165.49203,33.141546 141.5604,84.706957 117.66793,32.923704 67.792904,0.04624157 13.113115,0.03499795 Z"
       style="fill:url(#linearGradient2);stroke-width:3.44988;stroke-linecap:round;stroke-linejoin:bevel;stroke-opacity:0.999999"
       id="path3" /><path
       d="m 137.20246,112.06186 c 0.39153,0.39096 -1.66317,10.85276 -1.66317,10.85276 0,0 -1.56296,7.23767 -12.1244,16.62564 -10.5615,9.38802 -2.74066,23.17867 0.77983,29.73061 3.52046,6.5521 18.28884,10.95099 18.28884,10.95099 0,0 -13.32693,-16.63179 -7.82261,-25.62061 5.62171,-9.1805 8.31695,-11.70811 8.21405,-11.73386 l 4.69412,5.47399 3.12845,6.65131 c 0,0 3.22748,18.18827 -8.21401,25.22917 0,0 29.82639,-6.25832 24.54568,-32.75966 -5.28078,-26.50143 -30.21795,-35.7913 -29.827,-35.40034 z"
       style="display:inline;fill:#fbead0;fill-opacity:1;stroke-width:3.01408;stroke-linecap:round;stroke-linejoin:bevel;stroke-opacity:0.999999"
       id="path5"
       sodipodi:nodetypes="ccsccsccccscc"
       inkscape:transform-center-y="-3.0198118"
       inkscape:label="flama" /></g></svg>
